HIERARCHY
ROOT Hips
{
  OFFSET -187.679 86.5976 -156.378
  CHANNELS 6 Xposition Yposition Zposition Zrotation Xrotation Yrotation
  JOINT LeftUpLeg
  {
    OFFSET 8.64259 1.95398 -2.38835
    CHANNELS 3 Zrotation Xrotation Yrotation
    JOINT LeftLeg
    {
      OFFSET 43.7702 0 0
      CHANNELS 3 Zrotation Xrotation Yrotation
      JOINT LeftFoot
      {
        OFFSET 40.6238 0 0
        CHANNELS 3 Zrotation Xrotation Yrotation
        JOINT LeftToeBase
        {
          OFFSET 12.7242 0 0
          CHANNELS 3 Zrotation Xrotation Yrotation
          End Site
          {
            OFFSET 0 0 0
          }
        }
      }
    }
  }
  JOINT RightUpLeg
  {
    OFFSET -8.2249 1.95398 -2.59336
    CHANNELS 3 Zrotation Xrotation Yrotation
    JOINT RightLeg
    {
      OFFSET 43.5653 0 0
      CHANNELS 3 Zrotation Xrotation Yrotation
      JOINT RightFoot
      {
        OFFSET 40.6238 0 0
        CHANNELS 3 Zrotation Xrotation Yrotation
        JOINT RightToeBase
        {
          OFFSET 12.7242 0 0
          CHANNELS 3 Zrotation Xrotation Yrotation
          End Site
          {
            OFFSET 0 0 0
          }
        }
      }
    }
  }
  JOINT Spine
  {
    OFFSET 0.165834 0.87714 6.61349
    CHANNELS 3 Zrotation Xrotation Yrotation
    JOINT Spine1
    {
      OFFSET 7.38963 1.71661e-005 0
      CHANNELS 3 Zrotation Xrotation Yrotation
      JOINT Spine2
      {
        OFFSET 11.9445 1.14441e-005 0
        CHANNELS 3 Zrotation Xrotation Yrotation
        JOINT Spine3
        {
          OFFSET 14.7254 4.19617e-005 0
          CHANNELS 3 Zrotation Xrotation Yrotation
          JOINT Spine4
          {
            OFFSET 10.9679 0 0
            CHANNELS 3 Zrotation Xrotation Yrotation
            JOINT RightShoulder
            {
              OFFSET 2.46616 -1.6653 3.69651
              CHANNELS 3 Zrotation Xrotation Yrotation
              JOINT RightArm
              {
                OFFSET 13.0012 0 0
                CHANNELS 3 Zrotation Xrotation Yrotation
                JOINT RightForeArm
                {
                  OFFSET 28.7848 1.52588e-005 0
                  CHANNELS 3 Zrotation Xrotation Yrotation
                  JOINT RightHand
                  {
                    OFFSET 26.5688 1.52588e-005 0
                    CHANNELS 3 Zrotation Xrotation Yrotation
                    End Site
                    {
                      OFFSET 0 0 0
                    }
                  }
                }
              }
            }
            JOINT LeftShoulder
            {
              OFFSET 2.38034 -1.29275 -3.7523
              CHANNELS 3 Zrotation Xrotation Yrotation
              JOINT LeftArm
              {
                OFFSET 16.3182 6.10352e-005 0
                CHANNELS 3 Zrotation Xrotation Yrotation
                JOINT LeftForeArm
                {
                  OFFSET 27.0901 0 0
                  CHANNELS 3 Zrotation Xrotation Yrotation
                  JOINT LeftHand
                  {
                    OFFSET 24.5451 1.52588e-005 0
                    CHANNELS 3 Zrotation Xrotation Yrotation
                    End Site
                    {
                      OFFSET 0 0 0
                    }
                  }
                }
              }
            }
            JOINT Neck
            {
              OFFSET 5.0226 -0.0266342 0
              CHANNELS 3 Zrotation Xrotation Yrotation
              JOINT Head
              {
                OFFSET 6.69363 2.86102e-005 0
                CHANNELS 3 Zrotation Xrotation Yrotation
                End Site
                {
                  OFFSET 0 0 0
                }
              }
            }
          }
        }
      }
    }
  }
}
MOTION
Frames:	7
Frame Time:	0.0416667
25.0396 101.667 25.0382 -132.415 -81.0395 -133.371 -175.309 -2.92303 88.1174 -17.4298 8.46003 7.24833 72.8316 5.21777 -2.68053 12.7371 -7.71107 2.41806 173.164 -1.68011 87.8302 -18.1246 3.87098 1.49901 67.8829 -3.43868 2.10752 24.0307 -2.0307 3.88239 0.360763 7.40471 -89.7904 12.0634 0.816227 0.328794 0.392686 0.82991 0.292545 -22.1437 0.679676 0.558908 -2.13101 0.679682 0.558909 88.2755 -47.9631 -103.798 29.397 -29.4813 -12.8242 -15.4707 -15.2629 -17.7713 -9.33102 -0.166223 -3.07354 -87.8018 -43.954 81.0853 -28.9086 31.3438 -10.4889 7.50241 -6.89937 -12.9738 -2.03189 -0.0855778 -3.78924 9.90432 -0.341078 -3.17965 5.9711 0.607216 2.95096 
25.138 101.585 25.0698 -134.973 -81.833 -135.836 -175.41 -2.1599 88.1714 -18.3507 9.46005 7.42461 72.9653 5.22334 -2.62902 13.3183 -7.86254 3.24266 173.143 -1.9713 87.8854 -17.0036 4.89985 1.76292 67.3984 -3.45282 2.48969 24.9117 -1.91838 4.0642 0.310489 7.39294 -89.8448 12.0873 0.690627 0.233767 0.416557 0.700249 0.203137 -22.1196 0.588443 0.430531 -2.10692 0.58844 0.430529 88.4348 -47.7776 -103.601 29.1418 -28.2194 -13.5796 -16.0852 -19.3929 -17.389 -9.98519 -0.0866538 -4.17906 -88.3845 -45.0029 80.3725 -27.9857 30.7581 -11.0043 7.12287 -8.63518 -12.3337 0.956803 -0.0585971 -3.16965 9.64201 -0.480208 -2.28599 6.78344 0.220575 2.14763 
25.2205 101.623 25.1422 -135.172 -81.7535 -136.273 -175.632 -2.29566 87.719 -18.2714 9.38792 7.53126 72.2269 4.94535 -2.46857 14.7272 -7.54546 3.9195 172.872 -2.00146 87.509 -17.1344 4.6356 1.79884 67.6948 -3.51772 2.30472 24.6217 -2.09457 4.42594 0.340791 7.39676 -89.7952 12.0795 0.774294 0.323739 0.408734 0.787797 0.289341 -22.1275 0.641197 0.541484 -2.11483 0.641205 0.54149 88.4949 -47.9683 -103.455 29.3144 -27.9984 -13.6785 -16.2951 -21.0841 -17.368 -10.3555 -0.080202 -4.25707 -88.2328 -44.2937 80.4653 -28.6964 30.1883 -11.2615 7.21456 -8.39201 -11.7008 0.385622 -0.0684937 -3.41274 9.42403 -0.510889 -2.83827 6.93525 0.3545 2.65993 
25.1593 101.618 25.2872 -133.59 -82.0556 -134.437 -175.514 -1.88836 88.0556 -18.5166 9.56687 7.49981 72.4465 5.06533 -2.32834 14.5325 -7.51854 3.68246 173.13 -1.99108 87.9238 -16.7502 4.92581 1.80745 67.6119 -3.53361 2.14257 24.4698 -2.12006 4.41105 0.364481 7.34762 -89.84 12.1781 0.80026 0.230797 0.507429 0.809646 0.195344 -22.0292 0.693893 0.460644 -2.0165 0.693907 0.460658 88.5486 -47.9396 -103.379 29.3909 -27.8761 -13.5976 -16.0595 -19.6971 -17.1939 -9.82114 -0.0714226 -4.33953 -88.3958 -44.4112 80.2301 -28.4838 30.3577 -11.0449 7.29759 -7.73907 -12.0183 0.119292 -0.0602191 -2.9872 9.4345 -0.6206 -2.81759 6.87418 0.25453 2.80996 
25.1313 101.633 25.4528 -131.685 -81.8815 -132.335 -175.268 -2.12369 88.4001 -18.1497 9.47764 7.29789 72.7175 5.13528 -2.62168 14.2068 -7.9031 4.14765 173.414 -1.94995 88.2487 -17.0156 4.99587 1.65198 67.7375 -3.49025 2.14599 24.2571 -2.06652 4.12261 0.373297 7.3324 -89.8334 12.2084 0.82092 0.240968 0.537694 0.830731 0.204597 -21.9989 0.710542 0.476555 -1.98628 0.71055 0.476559 87.9438 -48.3248 -104.213 29.1663 -27.8536 -13.4977 -15.9241 -18.8161 -17.1557 -9.83278 -0.0901782 -4.11759 -88.0295 -43.9877 80.7266 -28.5888 30.9773 -11.1028 7.33988 -7.0022 -11.8767 -0.734753 -0.0761873 -3.44904 9.35882 -0.524636 -3.29688 7.10911 0.466607 2.91928 
25.2474 101.594 25.5997 -130.868 -82.0999 -131.954 -175.662 -2.0286 87.7393 -18.0541 9.15519 7.44081 72.5089 5.08327 -2.55575 14.2121 -7.74542 3.83691 173.045 -1.40643 87.5869 -17.3915 4.49429 1.70067 67.3579 -3.34494 2.57177 25.0181 -1.86864 3.97633 0.371676 7.31058 -89.8392 12.2522 0.823977 0.229696 0.581495 0.824256 0.193596 -21.9551 0.70822 0.46401 -1.9425 0.708228 0.464005 88.4311 -47.8073 -103.598 29.4954 -27.6308 -13.6198 -15.6198 -18.259 -16.6234 -12.3906 -0.0721502 -4.50196 -88.5774 -45.0886 80.0858 -27.9578 30.9424 -10.789 7.14122 -7.82018 -12.1373 -0.348153 -0.0652694 -2.96943 9.28279 -0.621926 -2.45135 7.2017 0.159785 2.60783 
25.2698 101.581 25.7303 -130.192 -82.1033 -131.544 -175.73 -2.05454 87.4616 -18.0337 9.12618 7.33205 72.3974 5.10264 -2.34904 14.553 -7.54654 3.75815 172.954 -1.24881 87.3288 -17.6745 4.69049 1.62694 67.8988 -3.48802 2.53454 24.6739 -2.08339 4.42343 0.359402 7.30561 -89.7767 12.2614 0.819648 0.353685 0.590709 0.83493 0.317235 -21.9456 0.675945 0.583832 -1.93293 0.675948 0.583824 88.173 -48.1964 -103.893 29.3481 -27.5991 -13.5407 -15.6323 -17.6257 -16.6598 -10.5248 -0.0252318 -4.92683 -88.2499 -44.4681 80.4746 -28.6439 30.2696 -10.8917 7.47513 -6.89349 -12.0683 -0.93861 -0.0736425 -3.10009 9.12473 -0.671953 -3.11546 7.24193 0.271292 2.81277 
